<svg xmlns="http://www.w3.org/2000/svg" width="550" height="550" viewBox="0 0 550 550">
  <g id="artist" transform="translate(-21448 -15617)">
    <g id="Group_660" data-name="Group 660" transform="translate(1064)">
      <g id="Group_654" data-name="Group 654" transform="translate(20039 15463)">
        <rect id="Rectangle_281" data-name="Rectangle 281" width="550" height="550" rx="275" transform="translate(345 154)" fill="#ebfcff"/>
      </g>
    </g>
    <path id="Path_3032" data-name="Path 3032" d="M21777.885,15981.954H21762.5l-12.953,5.182v23.962l20.563,8.419,16.676-12.467,3.076-19.914Z" fill="#fff"/>
    <g id="noun_artist_1191144" transform="translate(21618.369 15768)">
      <path id="Path_3021" data-name="Path 3021" d="M7.63,210.085v26.348a6.262,6.262,0,0,0,6.262,6.262H94.815a6.262,6.262,0,0,0,0-12.523H20.153V210.135a28.277,28.277,0,0,1,17.056-25.973l57.731-25.046a6.262,6.262,0,0,0,3.782-5.685V133.168a10.319,10.319,0,0,0-2.029-6.136,54.476,54.476,0,0,1-9.317-25.046,6.261,6.261,0,0,0-2.63-4.408A21.039,21.039,0,0,1,75.73,80.371a4.483,4.483,0,0,1,1.4-3.306,4.734,4.734,0,0,1,3.406-1.3,6.262,6.262,0,0,0,6.512-6.186l.2-19.11a34.062,34.062,0,0,1,2.354-12.523c4.734-11.9,16.806-24.42,32.059-24.42h3.982v6.888a6.262,6.262,0,0,0,5.635,6.236,34.614,34.614,0,0,1,23.644,14.9,19.511,19.511,0,0,1,3.657,11.4v16.48a6.262,6.262,0,0,0,6.262,6.262h0a4.684,4.684,0,0,1,3.281,1.378,4.483,4.483,0,0,1,1.327,3.256A21.089,21.089,0,0,1,160.762,97.3a6.262,6.262,0,0,0-2.5,4.358,54.15,54.15,0,0,1-9.693,25.772,6.262,6.262,0,1,0,10.018,7.514,65.721,65.721,0,0,0,11.772-29.329A33.637,33.637,0,0,0,182,80.271a16.981,16.981,0,0,0-5.009-12.1,17.282,17.282,0,0,0-5.886-3.857v-11.4a31.683,31.683,0,0,0-6.061-18.76A48.639,48.639,0,0,0,138.17,15.176V7.262A6.262,6.262,0,0,0,131.909,1H121.665C100.626,1,84.271,17.656,77.959,33.109A46.486,46.486,0,0,0,74.7,50.241l-.15,13.926a17.257,17.257,0,0,0-6.111,3.807A16.956,16.956,0,0,0,63.207,80.3a33.562,33.562,0,0,0,12.1,25.747,65.12,65.12,0,0,0,10.9,27.851v15.4L32.25,172.616A40.8,40.8,0,0,0,7.63,210.085Z" transform="translate(0)" fill="#526b70"/>
      <path id="Path_3030" data-name="Path 3030" d="M322.049,140.85l-.282-.214a45.82,45.82,0,0,1-11.1-11.753,21.284,21.284,0,0,1-2.313-4.507c-.007-.027-.019-.051-.027-.078-.043-.139-.093-.274-.144-.41-.03-.078-.058-.155-.09-.231-.052-.12-.109-.237-.168-.353-.044-.088-.087-.176-.134-.262s-.112-.187-.17-.278-.123-.2-.191-.3c-.052-.074-.109-.144-.164-.216-.081-.105-.161-.211-.247-.311-.054-.063-.113-.122-.17-.184-.093-.1-.186-.2-.285-.295-.066-.063-.137-.121-.2-.181-.1-.085-.191-.17-.291-.249s-.176-.129-.265-.193-.176-.129-.268-.189c-.108-.071-.222-.134-.334-.2-.079-.046-.157-.093-.238-.136-.123-.065-.251-.122-.38-.181-.077-.035-.153-.072-.231-.1-.126-.052-.256-.1-.386-.142-.088-.031-.174-.063-.263-.091-.117-.035-.236-.064-.354-.095s-.219-.057-.33-.08-.2-.035-.3-.052c-.135-.022-.27-.044-.406-.058-.086-.009-.173-.013-.26-.02-.153-.011-.3-.02-.459-.022-.029,0-.057,0-.086,0-.061,0-.121.007-.182.009-.144,0-.288.009-.433.02-.115.009-.228.023-.34.038s-.226.029-.339.049c-.143.025-.282.056-.423.089-.059.014-.118.022-.177.038-.028.007-.054.018-.082.026-.147.04-.292.087-.436.136-.082.028-.165.054-.246.085-.128.049-.252.1-.375.158-.093.042-.187.082-.278.126s-.2.105-.3.16-.212.116-.315.18c-.078.049-.152.1-.228.154-.113.076-.225.152-.332.234-.067.051-.128.106-.193.159-.107.088-.214.176-.315.27-.066.061-.127.127-.191.191-.09.091-.182.18-.267.276-.072.08-.137.165-.2.247s-.138.168-.2.255-.142.208-.21.314c-.048.075-.1.148-.145.225-.069.116-.13.236-.192.356-.037.073-.077.145-.113.219-.055.118-.1.239-.15.361-.032.083-.068.165-.1.251-.037.109-.068.221-.1.333s-.061.206-.085.311-.038.19-.055.285c-.023.128-.047.255-.062.384-.01.081-.014.162-.021.244-.012.144-.022.288-.023.433,0,.027,0,.053,0,.081V173H280.17a28.215,28.215,0,0,0-28.438,27.964c0,14.984,12.268,25.569,28.438,25.569,16.028,0,28.438-11.682,28.438-26.766V147.577c1.3,1.153,2.7,2.308,4.205,3.457l.347.263a23.5,23.5,0,0,1,4.7,4.435c5.77,7.61,7.907,13.836,5.276,22.021a6.633,6.633,0,0,0,4.746,8.343,7.194,7.194,0,0,0,8.864-4.467c4.191-13.036.762-23.022-7.309-33.669A36.566,36.566,0,0,0,322.049,140.85ZM294.39,199.766c0,7.694-6.046,13.383-14.22,13.383-8.58,0-14.219-4.865-14.219-12.185a14.437,14.437,0,0,1,14.219-14.581h14.22Z" transform="translate(-131.521 32.359)" fill="#526b70"/>
    </g>
  </g>
</svg>
